PathFileType	4	(X/Y/Z)	AB12\squats_1.trc
DataRate	CameraRate	NumFrames	NumMarkers	Units	OrigDataRate	OrigDataStartFrame	OrigNumFrames
200.000000	200.000000	4	35	mm	200.000000	152	304
Frame#	Time	C7			LSHO			STRN			LASI			RASI			LPSI			RPSI			LGTR			RGTR			LTHC			LTHL			LTHR			LKNE			LMKNE			LSHC			LSHL			LSHR			LANK			LMANK			LMT1			LMT5			LCAL			RTHC			RTHL			RTHR			RKNE			RMKNE			RSHC			RSHL			RSHR			RANK			RMANK			RMT1			RMT5			RCAL			
		X1	Y1	Z1	X2	Y2	Z2	X3	Y3	Z3	X4	Y4	Z4	X5	Y5	Z5	X6	Y6	Z6	X7	Y7	Z7	X8	Y8	Z8	X9	Y9	Z9	X10	Y10	Z10	X11	Y11	Z11	X12	Y12	Z12	X13	Y13	Z13	X14	Y14	Z14	X15	Y15	Z15	X16	Y16	Z16	X17	Y17	Z17	X18	Y18	Z18	X19	Y19	Z19	X20	Y20	Z20	X21	Y21	Z21	X22	Y22	Z22	X23	Y23	Z23	X24	Y24	Z24	X25	Y25	Z25	X26	Y26	Z26	X27	Y27	Z27	X28	Y28	Z28	X29	Y29	Z29	X30	Y30	Z30	X31	Y31	Z31	X32	Y32	Z32	X33	Y33	Z33	X34	Y34	Z34	X35	Y35	Z35	

153	21.75	-3565.770702825166	875.3223334091789	2469.940965731301	-3618.224368177995	830.0797297985405	2591.511755801239	-3632.796195940702	734.1305255340627	2479.76369897235	-3396.04757562164	536.7734691628065	2637.13812144415	-3386.634258059333	535.9358632162921	2358.9696689097	-3197.927097291973	611.5020565865439	2534.734864319799	-3190.544400809446	601.8703702931305	2447.466772578312	-3276.894338377651	536.0735628022134	2722.243272136134	-3281.126264586446	493.343353542293	2284.130650692607	-3453.29701366469	437.8423451381766	2726.075386759349	-3566.232656197663	491.2057658150997	2650.218385221777	-3534.78162702436	326.9983353627442	2645.884431449136	-3644.061965554423	368.6628757807695	2740.429152292961	-3665.567733996734	356.3606653024293	2597.82931972916	-3543.414231669381	251.4640821291948	2733.787223908809	-3537.599786697856	158.7270525957367	2680.597816119763	-3444.742012992884	190.5802663365171	2655.160953663192	-3414.255385287834	87.47183683478953	2704.405030633053	-3428.842617531659	77.26261771846578	2616.465640543924	-3548.139132855455	44.21808638507733	2663.078313033872	-3507.579446153947	41.99979816780743	2746.152314714232	-3334.877201987374	66.68756839274585	2669.941525719012	-3550.030334207825	324.8468030916558	2373.56939969353	-3444.227295346915	397.1998816422986	2287.487971455606	-3545.100045940268	495.0815919922467	2355.693034078432	-3623.985039762982	364.1792414520092	2272.64236157808	-3660.996502268892	337.8230302339552	2406.24755751764	-3423.6262314002	178.4516340499385	2352.763207445341	-3519.787572670011	256.6842501927417	2282.471142321625	-3527.190643018039	160.3176530157116	2327.791584273134	-3399.347093173136	91.02241619756754	2305.87776856551	-3421.886923526776	80.9062826041076	2389.906675956989	-3531.706263754746	50.63978132354613	2341.79817440225	-3494.332882569475	49.29157798401346	2269.087895721646	-3325.049591183014	71.79473565306718	2351.932173246092	
154	21.755	-3565.499935774601	875.7645839780446	2469.954239132583	-3617.981436314424	830.5822973418626	2591.537908758134	-3632.608994937827	734.6428480955478	2479.749799787598	-3396.074576715017	536.9305112558044	2637.059232898545	-3386.794716144631	536.0718504057082	2358.912628457442	-3197.968310617819	611.6350280156514	2534.53517269584	-3190.642075727862	601.9972652132535	2447.251966744015	-3276.881950659037	536.1537556534158	2722.109976814066	-3281.409555864201	493.4439951057562	2283.950910957775	-3453.358109429702	437.8918079489988	2725.98410896242	-3566.349974826085	491.2282306092876	2650.199198322346	-3534.824227403871	327.0220303038654	2645.777367946735	-3644.097740982136	368.6478268523533	2740.419315981896	-3665.684051971167	356.3276895449543	2597.780231297927	-3543.438493624657	251.4657425515376	2733.747316593176	-3537.62009123112	158.7262660891754	2680.58497819353	-3444.791694957069	190.5748449692452	2655.10648297437	-3414.263442185601	87.47470335950281	2704.363041700829	-3428.865007132707	77.25599305375181	2616.431305542038	-3548.150229107881	44.20087872852536	2663.072027420742	-3507.593703373135	42.02392221667339	2746.14036170902	-3334.896297782378	66.70276196169597	2669.91371327258	-3550.210395685998	324.71689620939	2373.733266287134	-3444.565346549311	397.1723125392682	2287.521653217969	-3545.401004930791	494.9840564434736	2355.814868509913	-3624.259001217791	364.0170594610361	2272.861951154497	-3661.168234969485	337.5787558556161	2406.492365127977	-3423.666449509516	178.4014776633003	2352.828676701156	-3519.963431688628	256.6040917422416	2282.612393169818	-3527.281541391182	160.2266186474477	2327.885151743489	-3399.36312598276	91.0208447167858	2305.907976975529	-3421.894598695996	80.88018932435322	2389.922860310398	-3531.701103962633	50.60764330396768	2341.815692060772	-3494.338788921695	49.29763956506081	2269.093932343069	-3325.051386713488	71.79256836541994	2351.92459484737	
155	21.76	-3565.227277735257	876.3431168517268	2469.959572981732	-3617.73661248805	831.2211457850302	2591.556122325069	-3632.423688989133	735.2915801475848	2479.729436978075	-3396.10421400934	537.1851924779513	2636.977625308796	-3386.960276469738	536.3178804290889	2358.860893729116	-3198.022954271934	611.8925243092798	2534.337306870104	-3190.751997483719	602.2562976947625	2447.038952763598	-3276.874053074393	536.3340173339055	2721.977084439962	-3281.69942578066	493.6689859406382	2283.76633372327	-3453.420006402057	438.0059065489917	2725.879704663414	-3566.481412824275	491.2947745789218	2650.1641320696	-3534.84341071992	327.0958735313341	2645.653023881844	-3644.125613884243	368.6564551874105	2740.382242414564	-3665.77823507083	356.3149316403538	2597.710507262887	-3543.455589760891	251.4822239806138	2733.690896134758	-3537.632519480532	158.7332082805427	2680.567365704469	-3444.831432311905	190.5747003653811	2655.047018965175	-3414.270167573743	87.47782459574228	2704.322393441714	-3428.884681404851	77.24805710882175	2616.399009493556	-3548.160190433684	44.18548055995318	2663.066240303513	-3507.607983743247	42.04980387448957	2746.12870234159	-3334.914127655378	66.7166099710592	2669.887560024531	-3550.359425109796	324.632388995696	2373.91300340796	-3444.901030232186	397.2213964519365	2287.563342261074	-3545.717671322408	494.9343000402579	2355.952477639153	-3624.525510756412	363.8760713782654	2273.108148786576	-3661.304397737551	337.352251144271	2406.754156863316	-3423.697326170693	178.3568738979448	2352.893276790272	-3520.132379946971	256.5345814250323	2282.765646085279	-3527.363794431632	160.144490126555	2327.986222749605	-3399.378362830918	91.02212669129391	2305.93272078249	-3421.897287398073	80.85607859380902	2389.935173799649	-3531.694573445974	50.57575541602101	2341.831665958674	-3494.34433729739	49.30305122809302	2269.098558812671	-3325.050361010501	71.79106222791047	2351.911465485219	
156	21.765	-3564.953046980728	877.0574343819309	2469.957313384954	-3617.490215124596	831.9957776237063	2591.566742733037	-3632.241205470585	736.075936168154	2479.703208787096	-3396.135904454927	537.5380556934202	2636.893143089908	-3387.1306772278	536.6737724531883	2358.813910386694	-3198.090754914172	612.2743370504593	2534.14117165749	-3190.873781012436	602.6470413407594	2446.827756889245	-3276.870510900185	536.6156542645547	2721.844426614694	-3281.995167001498	494.0175638955119	2283.576963809207	-3453.482427214432	438.1847382702844	2725.762130244108	-3566.626661121606	491.4055943049992	2650.112609044491	-3534.838908439676	327.220119485826	2645.511729395466	-3644.145363315714	368.6887957957662	2740.317498365306	-3665.849382434896	356.3225992049057	2597.620503932922	-3543.465163506795	251.5133273746277	2733.61790301652	-3537.636992862343	158.7475725006597	2680.544770387055	-3444.861088605332	190.5799593720636	2654.982324955107	-3414.275443468427	87.48115386947872	2704.283268824378	-3428.901514711833	77.23880625607738	2616.368820403548	-3548.168950017514	44.17209648686436	2663.061017225818	-3507.622147807195	42.07719359327017	2746.117330160189	-3334.930436128894	66.72907783900644	2669.863290368503	-3550.476742945987	324.5939500919667	2374.108877118611	-3445.233251989848	397.3465772462525	2287.613359061291	-3546.049500218578	494.9326319446815	2356.105473977848	-3624.783575173015	363.7564646904357	2273.380924710031	-3661.40408461556	337.144901819028	2407.032817786167	-3423.719184629831	178.3177903393334	2352.957232139831	-3520.29378055235	256.4760118020319	2282.930940713781	-3527.436963731171	160.071461140165	2328.095103035306	-3399.392796220513	91.02622871538451	2305.952097250859	-3421.895135505471	80.83385547018689	2389.943706065475	-3531.686723337207	50.544600782186	2341.846058602818	-3494.349521615333	49.30785021875884	2269.101871663896	-3325.046586628122	71.79011105258296	2351.893049300936	
